<svg xmlns="http://www.w3.org/2000/svg" viewBox="0 0 512 512" role="img" aria-labelledby="title desc">
  <title id="title">NightEule mark</title>
  <desc id="desc">Abstract owl eye with code bracket shapes.</desc>
  <path fill="#07141b" d="M63 86v70c0 12 6 23 16 30l136 95c11 8 25 11 39 11h4c14 0 28-3 39-11l136-95c10-7 16-18 16-30V86L283 202c-17 12-39 12-56 0L63 86Z"/>
  <path fill="#0f6a73" d="M88 303 190 187l38 31-75 85 75 85-38 31L88 303Zm336 0L322 187l-38 31 75 85-75 85 38 31 102-116Z"/>
  <path fill="#d69a18" d="M159 264c0 54 43 97 97 97s97-43 97-97h-48c0 27-22 49-49 49s-49-22-49-49h-48Z"/>
  <circle cx="256" cy="264" r="46" fill="#07141b"/>
  <path fill="#07141b" d="m256 454-76-93c22 15 48 23 76 23s54-8 76-23l-76 93Z"/>
</svg>
